<svg version="1" xmlns="http://www.w3.org/2000/svg" width="1600" height="1600" viewBox="0 0 1200.000000 1200.000000"><path d="M335.9 78.5c-26.9 4.4-50.8 19-66 40.5-3.9 5.5-18.4 29.6-27.7 46-1.4 2.5-6.7 11.5-11.7 20-5.1 8.5-10.3 17.4-11.6 19.7-1.3 2.2-4.2 7.2-6.4 11-2.2 3.7-4.4 7.6-5 8.6-.5.9-13.6 23.2-29 49.4s-28.2 48.2-28.5 48.8c-.3.5-1.2 2.1-2.1 3.5-2 3-14.2 23.8-17.5 29.7-1.3 2.3-9.9 16.9-19 32.5-9.2 15.6-17.5 29.6-18.4 31.3-1 1.6-7.7 13.1-15 25.5s-14 23.8-15 25.5c-.9 1.6-7.2 12.4-14 24-6.8 11.5-13.6 23.2-15.2 26-1.6 2.7-3.3 5.7-3.8 6.5-4.4 6.8-16.1 27.6-18.2 32C1.5 580.9 0 608.1 7.7 631c2 6.1 6.4 15 11.5 23.8 2.4 3.9 9.3 15.6 15.3 25.9 6.1 10.3 12.2 20.7 13.6 23.3 1.4 2.5 5.7 9.7 9.4 16 3.8 6.3 7.4 12.6 8.2 14 .8 1.4 2.3 3.8 3.3 5.5 1 1.6 3.1 5.2 4.5 8 1.5 2.7 3.3 5.7 4.1 6.6.8.8 1.4 1.8 1.4 2.2 0 .3 2.5 4.7 5.5 9.7 3 5 5.5 9.3 5.5 9.5 0 .2 1.7 3.2 3.9 6.7 4.1 6.8 19.6 33.1 22.8 38.8 1.8 3.1 9.6 16.5 32.3 55 3.7 6.3 7.7 13.1 8.8 15 1.1 1.9 7.2 12.5 13.7 23.4 6.5 11 12.5 21.4 13.5 23 .9 1.7 4.6 8 8.2 14.1 8.8 15 21.8 37.1 32 54.5 4.7 8 10.5 17.9 13 22 2.4 4.1 4.7 8.2 5.1 9 .4.8 1.7 3.1 3 5.1 1.2 1.9 4.8 8 8 13.5 13.6 23.3 17.9 29.5 26 37.6 14.7 14.7 29.9 22.7 54.2 28.4 4.5 1.1 521.1 1.3 528.1.3 8.7-1.4 23.1-5.7 29.9-9.2 14-6.9 27.4-17.9 36.2-29.7 3.2-4.2 27.8-45.3 42.3-70.5.9-1.7 6.1-10.4 11.4-19.3 5.3-9 9.6-16.6 9.6-17 0-.3.6-1.3 1.4-2.1.7-.9 2.5-3.6 3.8-6.1 2.2-3.9 36.7-62.9 52.1-89 2.8-4.7 7.3-12.5 10.1-17.3 2.8-4.9 5.9-10 6.8-11.5 1-1.5 2.1-3.4 2.5-4.2.4-.8 6.4-11.2 13.3-23 15.3-25.9 43.1-73.2 45.6-77.7 7.6-13 34.8-59.4 50.4-85.8 15.4-26.1 19.3-38.7 19.1-61.7 0-9-3.5-27.5-6.1-32.7-.4-.9-1.8-3.8-3-6.5-1.9-4-14.6-26.4-18-31.6-.5-.8-2.1-3.5-3.5-6s-2.9-5.2-3.4-6c-4.6-7.4-12.1-20.1-12.1-20.4 0-.2-1.8-3.4-4.1-7.1-2.2-3.7-4.9-8.2-5.9-9.9-.9-1.7-5.4-9.4-10-17.1-4.5-7.7-9.6-16.5-11.3-19.5-1.6-3-3.5-6.2-4.2-7-.7-.8-1.5-2.2-1.9-3-.3-.8-1.4-2.9-2.4-4.5-1.1-1.7-5-8.4-8.9-15-3.9-6.6-13.9-23.7-22.3-38s-16-27.4-17-29c-3.8-6.6-26.4-45.1-36.9-62.9-6.1-10.3-11.1-19-11.1-19.3 0-.2-1.3-2.4-3-4.8-1.6-2.4-3-4.6-3-4.9 0-.2-4-7.1-8.8-15.3-4.8-8.1-11.5-19.4-14.8-25.1-7.7-13.4-9.4-16.3-32.4-55.5-10.7-18.2-21.6-36.1-24.3-39.7-14.7-19.6-37-33.3-62.7-38.6-1.9-.4-120.3-.8-263-.9-199.5-.1-261.3.1-267.1 1z"/></svg>